<mxfile host="cryptpad-sandbox.private.coffee" version="21.8.2" type="embed"><diagram id="_w5quBjUEY321jHu5cvN" name="Page-1"><mxGraphModel dx="462" dy="241" grid="1" gridSize="5" guides="1" tooltips="1" connect="1" arrows="1" fold="1" page="1" pageScale="1" pageWidth="827" pageHeight="1169" math="0" shadow="0"><root><mxCell id="0"/><mxCell id="1" parent="0"/><mxCell id="W5E6wQUxxrBwjv3_R4AU-14" value="&lt;font style=&quot;font-size: 12px;&quot; face=&quot;Helvetica&quot;&gt;-X3:2&lt;/font&gt;" style="text;html=1;strokeColor=none;fillColor=none;align=center;verticalAlign=middle;whiteSpace=wrap;rounded=0;" parent="1" vertex="1"><mxGeometry x="201.75" y="240" width="50" height="30" as="geometry"/></mxCell><mxCell id="W5E6wQUxxrBwjv3_R4AU-2" value="&lt;font style=&quot;font-size: 12px;&quot; face=&quot;Helvetica&quot;&gt;-X1:20&lt;/font&gt;" style="text;html=1;strokeColor=none;fillColor=none;align=center;verticalAlign=middle;whiteSpace=wrap;rounded=0;" parent="1" vertex="1"><mxGeometry x="195.5" y="30" width="62.5" height="30" as="geometry"/></mxCell><mxCell id="W5E6wQUxxrBwjv3_R4AU-1" value="" style="verticalLabelPosition=bottom;shadow=0;dashed=0;align=center;html=1;verticalAlign=top;strokeWidth=1;shape=ellipse;perimeter=ellipsePerimeter;" parent="1" vertex="1"><mxGeometry x="248" y="40" width="10" height="10" as="geometry"/></mxCell><mxCell id="W5E6wQUxxrBwjv3_R4AU-3" value="" style="verticalLabelPosition=bottom;shadow=0;dashed=0;align=center;html=1;verticalAlign=top;strokeWidth=1;shape=ellipse;perimeter=ellipsePerimeter;" parent="1" vertex="1"><mxGeometry x="248" y="80" width="10" height="10" as="geometry"/></mxCell><mxCell id="W5E6wQUxxrBwjv3_R4AU-4" value="&lt;font style=&quot;font-size: 12px;&quot; face=&quot;Helvetica&quot;&gt;-X3:1&lt;/font&gt;" style="text;html=1;strokeColor=none;fillColor=none;align=center;verticalAlign=middle;whiteSpace=wrap;rounded=0;" parent="1" vertex="1"><mxGeometry x="211.75" y="70" width="37.5" height="30" as="geometry"/></mxCell><mxCell id="W5E6wQUxxrBwjv3_R4AU-7" value="" style="pointerEvents=1;verticalLabelPosition=bottom;shadow=0;dashed=0;align=center;html=1;verticalAlign=top;shape=mxgraph.electrical.electro-mechanical.break_contact;direction=north;" parent="1" vertex="1"><mxGeometry x="239.25" y="140" width="12.5" height="75" as="geometry"/></mxCell><mxCell id="W5E6wQUxxrBwjv3_R4AU-9" value="" style="endArrow=none;html=1;rounded=0;entryX=0.5;entryY=1;entryDx=0;entryDy=0;exitX=1;exitY=1;exitDx=0;exitDy=0;exitPerimeter=0;" parent="1" source="W5E6wQUxxrBwjv3_R4AU-7" target="W5E6wQUxxrBwjv3_R4AU-3" edge="1"><mxGeometry width="50" height="50" relative="1" as="geometry"><mxPoint x="256.75" y="140" as="sourcePoint"/><mxPoint x="271.75" y="90" as="targetPoint"/></mxGeometry></mxCell><mxCell id="W5E6wQUxxrBwjv3_R4AU-10" value="&lt;font face=&quot;Helvetica&quot;&gt;-S1&lt;/font&gt;" style="text;html=1;strokeColor=none;fillColor=none;align=center;verticalAlign=middle;whiteSpace=wrap;rounded=0;" parent="1" vertex="1"><mxGeometry x="201.75" y="162.5" width="30" height="30" as="geometry"/></mxCell><mxCell id="W5E6wQUxxrBwjv3_R4AU-11" value=":11" style="text;html=1;strokeColor=none;fillColor=none;align=center;verticalAlign=middle;whiteSpace=wrap;rounded=0;" parent="1" vertex="1"><mxGeometry x="261.75" y="150" width="20" height="20" as="geometry"/></mxCell><mxCell id="W5E6wQUxxrBwjv3_R4AU-12" value=":12" style="text;html=1;strokeColor=none;fillColor=none;align=center;verticalAlign=middle;whiteSpace=wrap;rounded=0;" parent="1" vertex="1"><mxGeometry x="261.75" y="195" width="20" height="20" as="geometry"/></mxCell><mxCell id="W5E6wQUxxrBwjv3_R4AU-13" value="" style="verticalLabelPosition=bottom;shadow=0;dashed=0;align=center;html=1;verticalAlign=top;strokeWidth=1;shape=ellipse;perimeter=ellipsePerimeter;" parent="1" vertex="1"><mxGeometry x="248" y="250" width="10" height="10" as="geometry"/></mxCell><mxCell id="W5E6wQUxxrBwjv3_R4AU-17" value="" style="endArrow=none;html=1;rounded=0;entryX=0;entryY=1;entryDx=0;entryDy=0;entryPerimeter=0;exitX=0.5;exitY=0;exitDx=0;exitDy=0;" parent="1" source="W5E6wQUxxrBwjv3_R4AU-13" target="W5E6wQUxxrBwjv3_R4AU-7" edge="1"><mxGeometry width="50" height="50" relative="1" as="geometry"><mxPoint x="221.75" y="250" as="sourcePoint"/><mxPoint x="271.75" y="200" as="targetPoint"/></mxGeometry></mxCell><mxCell id="W5E6wQUxxrBwjv3_R4AU-18" value="&lt;font face=&quot;Helvetica&quot;&gt;ext. Emergency Stop&lt;/font&gt;" style="text;html=1;strokeColor=none;fillColor=none;align=center;verticalAlign=middle;whiteSpace=wrap;rounded=0;" parent="1" vertex="1"><mxGeometry x="118" y="182.5" width="140" height="30" as="geometry"/></mxCell><mxCell id="W5E6wQUxxrBwjv3_R4AU-19" value="" style="endArrow=none;html=1;rounded=0;entryX=0.5;entryY=1;entryDx=0;entryDy=0;exitX=0.5;exitY=0;exitDx=0;exitDy=0;" parent="1" source="W5E6wQUxxrBwjv3_R4AU-3" target="W5E6wQUxxrBwjv3_R4AU-1" edge="1"><mxGeometry width="50" height="50" relative="1" as="geometry"><mxPoint x="201.75" y="140" as="sourcePoint"/><mxPoint x="371.75" y="60" as="targetPoint"/></mxGeometry></mxCell><mxCell id="W5E6wQUxxrBwjv3_R4AU-20" value="&lt;font style=&quot;font-size: 12px;&quot; face=&quot;Helvetica&quot;&gt;-X1:35&lt;/font&gt;" style="text;html=1;strokeColor=none;fillColor=none;align=center;verticalAlign=middle;whiteSpace=wrap;rounded=0;" parent="1" vertex="1"><mxGeometry x="195.5" y="270" width="62.5" height="30" as="geometry"/></mxCell><mxCell id="W5E6wQUxxrBwjv3_R4AU-21" value="" style="verticalLabelPosition=bottom;shadow=0;dashed=0;align=center;html=1;verticalAlign=top;strokeWidth=1;shape=ellipse;perimeter=ellipsePerimeter;" parent="1" vertex="1"><mxGeometry x="248" y="280" width="10" height="10" as="geometry"/></mxCell><mxCell id="W5E6wQUxxrBwjv3_R4AU-29" value="" style="endArrow=none;html=1;rounded=0;entryX=0.5;entryY=1;entryDx=0;entryDy=0;exitX=0.5;exitY=0;exitDx=0;exitDy=0;" parent="1" source="W5E6wQUxxrBwjv3_R4AU-21" target="W5E6wQUxxrBwjv3_R4AU-13" edge="1"><mxGeometry width="50" height="50" relative="1" as="geometry"><mxPoint x="281.75" y="270" as="sourcePoint"/><mxPoint x="261.75" y="260" as="targetPoint"/></mxGeometry></mxCell><mxCell id="W5E6wQUxxrBwjv3_R4AU-33" value="" style="pointerEvents=1;verticalLabelPosition=bottom;shadow=0;dashed=0;align=center;html=1;verticalAlign=top;shape=mxgraph.electrical.electro-mechanical.make_contact;direction=north;" parent="1" vertex="1"><mxGeometry x="623.75" y="130" width="16" height="75" as="geometry"/></mxCell><mxCell id="W5E6wQUxxrBwjv3_R4AU-34" value="" style="pointerEvents=1;verticalLabelPosition=bottom;shadow=0;dashed=0;align=center;html=1;verticalAlign=top;shape=mxgraph.electrical.electro-mechanical.make_contact;direction=north;" parent="1" vertex="1"><mxGeometry x="433.75" y="170" width="16" height="75" as="geometry"/></mxCell><mxCell id="W5E6wQUxxrBwjv3_R4AU-35" value="" style="pointerEvents=1;verticalLabelPosition=bottom;shadow=0;dashed=0;align=center;html=1;verticalAlign=top;shape=mxgraph.electrical.electro-mechanical.make_contact;direction=north;" parent="1" vertex="1"><mxGeometry x="583.75" y="130" width="16" height="75" as="geometry"/></mxCell><mxCell id="W5E6wQUxxrBwjv3_R4AU-37" value="" style="pointerEvents=1;verticalLabelPosition=bottom;shadow=0;dashed=0;align=center;html=1;verticalAlign=top;shape=mxgraph.electrical.electro-mechanical.make_contact;direction=north;" parent="1" vertex="1"><mxGeometry x="663.75" y="130" width="16" height="75" as="geometry"/></mxCell><mxCell id="W5E6wQUxxrBwjv3_R4AU-38" value="" style="pointerEvents=1;verticalLabelPosition=bottom;shadow=0;dashed=0;align=center;html=1;verticalAlign=top;shape=mxgraph.electrical.electro-mechanical.make_contact;direction=north;" parent="1" vertex="1"><mxGeometry x="623.75" y="205" width="16" height="75" as="geometry"/></mxCell><mxCell id="W5E6wQUxxrBwjv3_R4AU-39" value="" style="pointerEvents=1;verticalLabelPosition=bottom;shadow=0;dashed=0;align=center;html=1;verticalAlign=top;shape=mxgraph.electrical.electro-mechanical.make_contact;direction=north;" parent="1" vertex="1"><mxGeometry x="583.75" y="205" width="16" height="75" as="geometry"/></mxCell><mxCell id="W5E6wQUxxrBwjv3_R4AU-41" value="" style="pointerEvents=1;verticalLabelPosition=bottom;shadow=0;dashed=0;align=center;html=1;verticalAlign=top;shape=mxgraph.electrical.electro-mechanical.make_contact;direction=north;" parent="1" vertex="1"><mxGeometry x="663.75" y="205" width="16" height="75" as="geometry"/></mxCell><mxCell id="W5E6wQUxxrBwjv3_R4AU-43" value="13" style="text;html=1;strokeColor=none;fillColor=none;align=center;verticalAlign=middle;whiteSpace=wrap;rounded=0;" parent="1" vertex="1"><mxGeometry x="599.75" y="130" width="20" height="20" as="geometry"/></mxCell><mxCell id="W5E6wQUxxrBwjv3_R4AU-44" value="23" style="text;html=1;strokeColor=none;fillColor=none;align=center;verticalAlign=middle;whiteSpace=wrap;rounded=0;" parent="1" vertex="1"><mxGeometry x="643.75" y="130" width="20" height="20" as="geometry"/></mxCell><mxCell id="W5E6wQUxxrBwjv3_R4AU-45" value="33" style="text;html=1;strokeColor=none;fillColor=none;align=center;verticalAlign=middle;whiteSpace=wrap;rounded=0;" parent="1" vertex="1"><mxGeometry x="679.75" y="130" width="20" height="20" as="geometry"/></mxCell><mxCell id="W5E6wQUxxrBwjv3_R4AU-47" value="14" style="text;html=1;strokeColor=none;fillColor=none;align=center;verticalAlign=middle;whiteSpace=wrap;rounded=0;" parent="1" vertex="1"><mxGeometry x="601.75" y="260" width="20" height="20" as="geometry"/></mxCell><mxCell id="W5E6wQUxxrBwjv3_R4AU-48" value="24" style="text;html=1;strokeColor=none;fillColor=none;align=center;verticalAlign=middle;whiteSpace=wrap;rounded=0;" parent="1" vertex="1"><mxGeometry x="645.75" y="260" width="20" height="20" as="geometry"/></mxCell><mxCell id="W5E6wQUxxrBwjv3_R4AU-49" value="34" style="text;html=1;strokeColor=none;fillColor=none;align=center;verticalAlign=middle;whiteSpace=wrap;rounded=0;" parent="1" vertex="1"><mxGeometry x="681.75" y="260" width="20" height="20" as="geometry"/></mxCell><mxCell id="W5E6wQUxxrBwjv3_R4AU-53" value="Y1" style="text;html=1;strokeColor=none;fillColor=none;align=center;verticalAlign=middle;whiteSpace=wrap;rounded=0;" parent="1" vertex="1"><mxGeometry x="513.75" y="162.5" width="20" height="20" as="geometry"/></mxCell><mxCell id="W5E6wQUxxrBwjv3_R4AU-54" value="Y2" style="text;html=1;strokeColor=none;fillColor=none;align=center;verticalAlign=middle;whiteSpace=wrap;rounded=0;" parent="1" vertex="1"><mxGeometry x="513.75" y="240" width="20" height="20" as="geometry"/></mxCell><mxCell id="W5E6wQUxxrBwjv3_R4AU-55" value="" style="endArrow=none;html=1;rounded=0;entryX=0;entryY=0.264;entryDx=0;entryDy=0;entryPerimeter=0;exitX=1;exitY=1;exitDx=0;exitDy=0;exitPerimeter=0;" parent="1" source="W5E6wQUxxrBwjv3_R4AU-34" edge="1"><mxGeometry width="50" height="50" relative="1" as="geometry"><mxPoint x="533.75" y="220" as="sourcePoint"/><mxPoint x="503.75" y="169.59999999999997" as="targetPoint"/></mxGeometry></mxCell><mxCell id="W5E6wQUxxrBwjv3_R4AU-56" value="" style="endArrow=none;html=1;rounded=0;entryX=-0.002;entryY=0.802;entryDx=0;entryDy=0;entryPerimeter=0;exitX=0;exitY=1;exitDx=0;exitDy=0;exitPerimeter=0;" parent="1" source="W5E6wQUxxrBwjv3_R4AU-34" edge="1"><mxGeometry width="50" height="50" relative="1" as="geometry"><Array as="points"><mxPoint x="449.75" y="250"/><mxPoint x="453.75" y="250"/></Array><mxPoint x="533.75" y="220" as="sourcePoint"/><mxPoint x="503.1774999999999" y="250.3" as="targetPoint"/></mxGeometry></mxCell><mxCell id="W5E6wQUxxrBwjv3_R4AU-57" value="&lt;font face=&quot;Helvetica&quot;&gt;-S4&lt;br&gt;Start (Door)&lt;br&gt;&lt;/font&gt;" style="text;html=1;strokeColor=none;fillColor=none;align=center;verticalAlign=middle;whiteSpace=wrap;rounded=0;" parent="1" vertex="1"><mxGeometry x="353.75" y="190" width="90" height="30" as="geometry"/></mxCell><mxCell id="W5E6wQUxxrBwjv3_R4AU-58" value="&lt;font face=&quot;Helvetica&quot;&gt;-K1&lt;/font&gt;" style="text;html=1;strokeColor=none;fillColor=none;align=center;verticalAlign=middle;whiteSpace=wrap;rounded=0;" parent="1" vertex="1"><mxGeometry x="533.75" y="100" width="30" height="30" as="geometry"/></mxCell><mxCell id="W5E6wQUxxrBwjv3_R4AU-59" value="" style="endArrow=none;html=1;rounded=0;entryX=0;entryY=0;entryDx=0;entryDy=0;exitX=1;exitY=0.5;exitDx=0;exitDy=0;" parent="1" source="W5E6wQUxxrBwjv3_R4AU-1" target="W5E6wQUxxrBwjv3_R4AU-43" edge="1"><mxGeometry width="50" height="50" relative="1" as="geometry"><Array as="points"><mxPoint x="599.75" y="45"/></Array><mxPoint x="273.75" y="130" as="sourcePoint"/><mxPoint x="323.75" y="80" as="targetPoint"/></mxGeometry></mxCell><mxCell id="W5E6wQUxxrBwjv3_R4AU-62" value="" style="pointerEvents=1;verticalLabelPosition=bottom;shadow=0;dashed=0;align=center;html=1;verticalAlign=top;shape=mxgraph.electrical.electro-mechanical.break_contact;direction=north;" parent="1" vertex="1"><mxGeometry x="239.25" y="490" width="12.5" height="75" as="geometry"/></mxCell><mxCell id="W5E6wQUxxrBwjv3_R4AU-63" value="&lt;font face=&quot;Helvetica&quot;&gt;-S2&lt;/font&gt;" style="text;html=1;strokeColor=none;fillColor=none;align=center;verticalAlign=middle;whiteSpace=wrap;rounded=0;" parent="1" vertex="1"><mxGeometry x="201.75" y="512.5" width="30" height="30" as="geometry"/></mxCell><mxCell id="W5E6wQUxxrBwjv3_R4AU-64" value=":11" style="text;html=1;strokeColor=none;fillColor=none;align=center;verticalAlign=middle;whiteSpace=wrap;rounded=0;" parent="1" vertex="1"><mxGeometry x="261.75" y="500" width="20" height="20" as="geometry"/></mxCell><mxCell id="W5E6wQUxxrBwjv3_R4AU-65" value=":12" style="text;html=1;strokeColor=none;fillColor=none;align=center;verticalAlign=middle;whiteSpace=wrap;rounded=0;" parent="1" vertex="1"><mxGeometry x="261.75" y="545" width="20" height="20" as="geometry"/></mxCell><mxCell id="W5E6wQUxxrBwjv3_R4AU-66" value="" style="pointerEvents=1;verticalLabelPosition=bottom;shadow=0;dashed=0;align=center;html=1;verticalAlign=top;shape=mxgraph.electrical.electro-mechanical.break_contact;direction=north;" parent="1" vertex="1"><mxGeometry x="319.25" y="490" width="12.5" height="75" as="geometry"/></mxCell><mxCell id="W5E6wQUxxrBwjv3_R4AU-68" value=":21" style="text;html=1;strokeColor=none;fillColor=none;align=center;verticalAlign=middle;whiteSpace=wrap;rounded=0;" parent="1" vertex="1"><mxGeometry x="341.75" y="500" width="20" height="20" as="geometry"/></mxCell><mxCell id="W5E6wQUxxrBwjv3_R4AU-69" value=":22" style="text;html=1;strokeColor=none;fillColor=none;align=center;verticalAlign=middle;whiteSpace=wrap;rounded=0;" parent="1" vertex="1"><mxGeometry x="341.75" y="545" width="20" height="20" as="geometry"/></mxCell><mxCell id="W5E6wQUxxrBwjv3_R4AU-70" value="" style="pointerEvents=1;verticalLabelPosition=bottom;shadow=0;dashed=0;align=center;html=1;verticalAlign=top;shape=mxgraph.electrical.electro-mechanical.break_contact;direction=north;" parent="1" vertex="1"><mxGeometry x="319.25" y="610" width="12.5" height="75" as="geometry"/></mxCell><mxCell id="W5E6wQUxxrBwjv3_R4AU-71" value="&lt;font face=&quot;Helvetica&quot;&gt;-S3&lt;/font&gt;" style="text;html=1;strokeColor=none;fillColor=none;align=center;verticalAlign=middle;whiteSpace=wrap;rounded=0;" parent="1" vertex="1"><mxGeometry x="281.75" y="632.5" width="30" height="30" as="geometry"/></mxCell><mxCell id="W5E6wQUxxrBwjv3_R4AU-72" value=":11" style="text;html=1;strokeColor=none;fillColor=none;align=center;verticalAlign=middle;whiteSpace=wrap;rounded=0;" parent="1" vertex="1"><mxGeometry x="341.75" y="620" width="20" height="20" as="geometry"/></mxCell><mxCell id="W5E6wQUxxrBwjv3_R4AU-73" value=":12" style="text;html=1;strokeColor=none;fillColor=none;align=center;verticalAlign=middle;whiteSpace=wrap;rounded=0;" parent="1" vertex="1"><mxGeometry x="341.75" y="665" width="20" height="20" as="geometry"/></mxCell><mxCell id="W5E6wQUxxrBwjv3_R4AU-74" value="" style="endArrow=none;html=1;rounded=0;entryX=0.5;entryY=1;entryDx=0;entryDy=0;exitX=1;exitY=1;exitDx=0;exitDy=0;exitPerimeter=0;" parent="1" source="W5E6wQUxxrBwjv3_R4AU-62" target="W5E6wQUxxrBwjv3_R4AU-21" edge="1"><mxGeometry width="50" height="50" relative="1" as="geometry"><mxPoint x="211.75" y="480" as="sourcePoint"/><mxPoint x="253" y="440" as="targetPoint"/></mxGeometry></mxCell><mxCell id="W5E6wQUxxrBwjv3_R4AU-75" value="" style="endArrow=none;html=1;rounded=0;exitX=0;exitY=1;exitDx=0;exitDy=0;exitPerimeter=0;" parent="1" source="W5E6wQUxxrBwjv3_R4AU-62" edge="1"><mxGeometry width="50" height="50" relative="1" as="geometry"><Array as="points"><mxPoint x="251.75" y="570"/><mxPoint x="291.75" y="570"/></Array><mxPoint x="261.75" y="500" as="sourcePoint"/><mxPoint x="291.75" y="490" as="targetPoint"/></mxGeometry></mxCell><mxCell id="W5E6wQUxxrBwjv3_R4AU-76" value="" style="endArrow=none;html=1;rounded=0;entryX=1;entryY=1;entryDx=0;entryDy=0;entryPerimeter=0;" parent="1" target="W5E6wQUxxrBwjv3_R4AU-66" edge="1"><mxGeometry width="50" height="50" relative="1" as="geometry"><mxPoint x="291.75" y="490" as="sourcePoint"/><mxPoint x="281.75" y="510" as="targetPoint"/></mxGeometry></mxCell><mxCell id="W5E6wQUxxrBwjv3_R4AU-77" value="" style="endArrow=none;html=1;rounded=0;entryX=0.507;entryY=0.573;entryDx=0;entryDy=0;entryPerimeter=0;dashed=1;" parent="1" source="W5E6wQUxxrBwjv3_R4AU-62" target="W5E6wQUxxrBwjv3_R4AU-66" edge="1"><mxGeometry width="50" height="50" relative="1" as="geometry"><mxPoint x="231.75" y="560" as="sourcePoint"/><mxPoint x="281.75" y="510" as="targetPoint"/></mxGeometry></mxCell><mxCell id="W5E6wQUxxrBwjv3_R4AU-79" value="&lt;div style=&quot;text-align: right;&quot;&gt;&lt;span style=&quot;background-color: initial;&quot;&gt;Emergency Stop&lt;/span&gt;&lt;/div&gt;&lt;font face=&quot;Helvetica&quot;&gt;&lt;div style=&quot;text-align: right;&quot;&gt;&lt;span style=&quot;background-color: initial;&quot;&gt;mounted on&amp;nbsp; cabinet door&lt;/span&gt;&lt;/div&gt;&lt;/font&gt;" style="text;html=1;strokeColor=none;fillColor=none;align=center;verticalAlign=middle;whiteSpace=wrap;rounded=0;" parent="1" vertex="1"><mxGeometry x="98" y="535" width="141.25" height="30" as="geometry"/></mxCell><mxCell id="W5E6wQUxxrBwjv3_R4AU-80" value="&lt;font face=&quot;Helvetica&quot;&gt;Stop Button&lt;br&gt;Door&lt;br&gt;&lt;/font&gt;" style="text;html=1;strokeColor=none;fillColor=none;align=center;verticalAlign=middle;whiteSpace=wrap;rounded=0;" parent="1" vertex="1"><mxGeometry x="239.25" y="660" width="81.25" height="30" as="geometry"/></mxCell><mxCell id="W5E6wQUxxrBwjv3_R4AU-81" value="" style="pointerEvents=1;verticalLabelPosition=bottom;shadow=0;dashed=0;align=center;html=1;verticalAlign=top;shape=mxgraph.electrical.electro-mechanical.relay_coil;" parent="1" vertex="1"><mxGeometry x="301.75" y="730" width="60" height="35" as="geometry"/></mxCell><mxCell id="W5E6wQUxxrBwjv3_R4AU-82" value="&lt;font face=&quot;Helvetica&quot;&gt;-K1&lt;/font&gt;" style="text;html=1;strokeColor=none;fillColor=none;align=center;verticalAlign=middle;whiteSpace=wrap;rounded=0;" parent="1" vertex="1"><mxGeometry x="268" y="730.5" width="30" height="30" as="geometry"/></mxCell><mxCell id="W5E6wQUxxrBwjv3_R4AU-83" value=":A1" style="text;html=1;strokeColor=none;fillColor=none;align=center;verticalAlign=middle;whiteSpace=wrap;rounded=0;" parent="1" vertex="1"><mxGeometry x="336.75" y="715" width="30" height="20" as="geometry"/></mxCell><mxCell id="W5E6wQUxxrBwjv3_R4AU-84" value=":A2" style="text;html=1;strokeColor=none;fillColor=none;align=center;verticalAlign=middle;whiteSpace=wrap;rounded=0;" parent="1" vertex="1"><mxGeometry x="336.75" y="758" width="30" height="20" as="geometry"/></mxCell><mxCell id="W5E6wQUxxrBwjv3_R4AU-85" value="&lt;font style=&quot;font-size: 12px;&quot; face=&quot;Helvetica&quot;&gt;-X1:28&lt;/font&gt;" style="text;html=1;strokeColor=none;fillColor=none;align=center;verticalAlign=middle;whiteSpace=wrap;rounded=0;" parent="1" vertex="1"><mxGeometry x="269.25" y="790" width="62.5" height="30" as="geometry"/></mxCell><mxCell id="W5E6wQUxxrBwjv3_R4AU-86" value="" style="verticalLabelPosition=bottom;shadow=0;dashed=0;align=center;html=1;verticalAlign=top;strokeWidth=1;shape=ellipse;perimeter=ellipsePerimeter;" parent="1" vertex="1"><mxGeometry x="326.75" y="800" width="10" height="10" as="geometry"/></mxCell><mxCell id="W5E6wQUxxrBwjv3_R4AU-87" value="" style="endArrow=none;html=1;rounded=0;entryX=0;entryY=1;entryDx=0;entryDy=0;entryPerimeter=0;exitX=1;exitY=1;exitDx=0;exitDy=0;exitPerimeter=0;" parent="1" source="W5E6wQUxxrBwjv3_R4AU-70" target="W5E6wQUxxrBwjv3_R4AU-66" edge="1"><mxGeometry width="50" height="50" relative="1" as="geometry"><mxPoint x="251.75" y="670" as="sourcePoint"/><mxPoint x="301.75" y="620" as="targetPoint"/></mxGeometry></mxCell><mxCell id="W5E6wQUxxrBwjv3_R4AU-88" value="" style="endArrow=none;html=1;rounded=0;entryX=0;entryY=1;entryDx=0;entryDy=0;entryPerimeter=0;exitX=0.5;exitY=0;exitDx=0;exitDy=0;exitPerimeter=0;" parent="1" source="W5E6wQUxxrBwjv3_R4AU-81" target="W5E6wQUxxrBwjv3_R4AU-70" edge="1"><mxGeometry width="50" height="50" relative="1" as="geometry"><mxPoint x="341.75" y="620" as="sourcePoint"/><mxPoint x="341.75" y="575" as="targetPoint"/></mxGeometry></mxCell><mxCell id="W5E6wQUxxrBwjv3_R4AU-89" value="" style="endArrow=none;html=1;rounded=0;entryX=0.5;entryY=1;entryDx=0;entryDy=0;entryPerimeter=0;exitX=0.5;exitY=0;exitDx=0;exitDy=0;" parent="1" source="W5E6wQUxxrBwjv3_R4AU-86" target="W5E6wQUxxrBwjv3_R4AU-81" edge="1"><mxGeometry width="50" height="50" relative="1" as="geometry"><mxPoint x="341.75" y="740" as="sourcePoint"/><mxPoint x="341.75" y="695" as="targetPoint"/></mxGeometry></mxCell><mxCell id="W5E6wQUxxrBwjv3_R4AU-90" value=":13" style="text;html=1;strokeColor=none;fillColor=none;align=center;verticalAlign=middle;whiteSpace=wrap;rounded=0;" parent="1" vertex="1"><mxGeometry x="449.75" y="175" width="20" height="20" as="geometry"/></mxCell><mxCell id="W5E6wQUxxrBwjv3_R4AU-91" value=":14" style="text;html=1;strokeColor=none;fillColor=none;align=center;verticalAlign=middle;whiteSpace=wrap;rounded=0;" parent="1" vertex="1"><mxGeometry x="449.75" y="220" width="20" height="20" as="geometry"/></mxCell><mxCell id="W5E6wQUxxrBwjv3_R4AU-92" value="+24 V" style="text;html=1;align=center;verticalAlign=middle;resizable=0;points=[];autosize=1;strokeColor=none;fillColor=none;" parent="1" vertex="1"><mxGeometry x="146.75" y="30" width="60" height="30" as="geometry"/></mxCell><mxCell id="W5E6wQUxxrBwjv3_R4AU-93" value="0 V" style="text;html=1;align=center;verticalAlign=middle;resizable=0;points=[];autosize=1;strokeColor=none;fillColor=none;" parent="1" vertex="1"><mxGeometry x="233" y="790" width="40" height="30" as="geometry"/></mxCell><mxCell id="3" value="" style="endArrow=none;html=1;entryX=1;entryY=1;entryDx=0;entryDy=0;entryPerimeter=0;rounded=0;" parent="1" edge="1"><mxGeometry width="50" height="50" relative="1" as="geometry"><Array as="points"><mxPoint x="610" y="45"/><mxPoint x="640" y="45"/></Array><mxPoint x="600" y="55" as="sourcePoint"/><mxPoint x="639.75" y="135" as="targetPoint"/></mxGeometry></mxCell><mxCell id="4" value="" style="pointerEvents=1;verticalLabelPosition=bottom;shadow=0;dashed=0;align=center;html=1;verticalAlign=top;shape=mxgraph.electrical.electro-mechanical.relay_coil;" parent="1" vertex="1"><mxGeometry x="609.5" y="370" width="60" height="35" as="geometry"/></mxCell><mxCell id="5" value="&lt;font face=&quot;Helvetica&quot;&gt;-Q1&lt;/font&gt;" style="text;html=1;strokeColor=none;fillColor=none;align=center;verticalAlign=middle;whiteSpace=wrap;rounded=0;" parent="1" vertex="1"><mxGeometry x="576.75" y="372.5" width="30" height="30" as="geometry"/></mxCell><mxCell id="6" value=":A1" style="text;html=1;strokeColor=none;fillColor=none;align=center;verticalAlign=middle;whiteSpace=wrap;rounded=0;" parent="1" vertex="1"><mxGeometry x="639.5" y="355" width="30" height="20" as="geometry"/></mxCell><mxCell id="7" value=":A2" style="text;html=1;strokeColor=none;fillColor=none;align=center;verticalAlign=middle;whiteSpace=wrap;rounded=0;" parent="1" vertex="1"><mxGeometry x="639.5" y="400" width="30" height="20" as="geometry"/></mxCell><mxCell id="12" value="" style="endArrow=none;html=1;rounded=0;entryX=0;entryY=1;entryDx=0;entryDy=0;entryPerimeter=0;exitX=0.5;exitY=0;exitDx=0;exitDy=0;exitPerimeter=0;" parent="1" source="4" target="W5E6wQUxxrBwjv3_R4AU-38" edge="1"><mxGeometry width="50" height="50" relative="1" as="geometry"><mxPoint x="600" y="330" as="sourcePoint"/><mxPoint x="642.58125" y="279.4" as="targetPoint"/></mxGeometry></mxCell><mxCell id="13" value="" style="endArrow=none;html=1;rounded=0;exitX=0.5;exitY=1;exitDx=0;exitDy=0;exitPerimeter=0;entryX=0;entryY=0.25;entryDx=0;entryDy=0;" parent="1" source="W5E6wQUxxrBwjv3_R4AU-81" target="7" edge="1"><mxGeometry width="50" height="50" relative="1" as="geometry"><Array as="points"><mxPoint x="345" y="780"/><mxPoint x="640" y="780"/><mxPoint x="640" y="770"/></Array><mxPoint x="330" y="770" as="sourcePoint"/><mxPoint x="640" y="440" as="targetPoint"/></mxGeometry></mxCell><mxCell id="46" value="&lt;font style=&quot;font-size: 12px;&quot; face=&quot;Helvetica&quot;&gt;-X1:26&lt;/font&gt;" style="text;html=1;strokeColor=none;fillColor=none;align=center;verticalAlign=middle;whiteSpace=wrap;rounded=0;" parent="1" vertex="1"><mxGeometry x="480" y="425" width="62.5" height="30" as="geometry"/></mxCell><mxCell id="47" value="" style="verticalLabelPosition=bottom;shadow=0;dashed=0;align=center;html=1;verticalAlign=top;strokeWidth=1;shape=ellipse;perimeter=ellipsePerimeter;" parent="1" vertex="1"><mxGeometry x="533.5" y="435" width="10" height="10" as="geometry"/></mxCell><mxCell id="49" value="" style="endArrow=none;html=1;fontColor=#B3B3B3;entryX=0.5;entryY=1;entryDx=0;entryDy=0;exitX=0.5;exitY=0;exitDx=0;exitDy=0;entryPerimeter=0;" parent="1" source="47" target="48" edge="1"><mxGeometry width="50" height="50" relative="1" as="geometry"><mxPoint x="328.75" y="489.53" as="sourcePoint"/><mxPoint x="500.62" y="489.53" as="targetPoint"/></mxGeometry></mxCell><mxCell id="50" value=":1" style="text;html=1;strokeColor=none;fillColor=none;align=center;verticalAlign=middle;whiteSpace=wrap;rounded=0;" parent="1" vertex="1"><mxGeometry x="533.75" y="352.5" width="30" height="20" as="geometry"/></mxCell><mxCell id="51" value=":2" style="text;html=1;strokeColor=none;fillColor=none;align=center;verticalAlign=middle;whiteSpace=wrap;rounded=0;" parent="1" vertex="1"><mxGeometry x="533.75" y="397.5" width="30" height="20" as="geometry"/></mxCell><mxCell id="52" value="&lt;font face=&quot;Helvetica&quot;&gt;-H1&lt;/font&gt;" style="text;html=1;strokeColor=none;fillColor=none;align=center;verticalAlign=middle;whiteSpace=wrap;rounded=0;" parent="1" vertex="1"><mxGeometry x="490.87" y="370" width="30" height="30" as="geometry"/></mxCell><mxCell id="53" value="" style="endArrow=none;html=1;fontColor=#B3B3B3;entryX=0;entryY=1;entryDx=0;entryDy=0;entryPerimeter=0;exitX=0.5;exitY=0;exitDx=0;exitDy=0;exitPerimeter=0;rounded=0;" parent="1" source="48" target="W5E6wQUxxrBwjv3_R4AU-39" edge="1"><mxGeometry width="50" height="50" relative="1" as="geometry"><Array as="points"><mxPoint x="538" y="320"/><mxPoint x="600" y="320"/></Array><mxPoint x="520" y="330" as="sourcePoint"/><mxPoint x="548.495" y="410" as="targetPoint"/></mxGeometry></mxCell><mxCell id="48" value="" style="verticalLabelPosition=bottom;shadow=0;dashed=0;align=center;html=1;verticalAlign=top;shape=mxgraph.electrical.abstract.multiplier;" parent="1" vertex="1"><mxGeometry x="520.87" y="370" width="35.25" height="30" as="geometry"/></mxCell><mxCell id="54" value="" style="pointerEvents=1;verticalLabelPosition=bottom;shadow=0;dashed=0;align=center;html=1;verticalAlign=top;shape=mxgraph.electrical.electro-mechanical.break_contact;direction=north;" vertex="1" parent="1"><mxGeometry x="720" y="130" width="12.5" height="75" as="geometry"/></mxCell><mxCell id="58" style="edgeStyle=orthogonalEdgeStyle;rounded=0;orthogonalLoop=1;jettySize=auto;html=1;exitX=0;exitY=1;exitDx=0;exitDy=0;exitPerimeter=0;" edge="1" parent="1" source="55"><mxGeometry relative="1" as="geometry"><mxPoint x="732.5" y="360" as="targetPoint"/></mxGeometry></mxCell><mxCell id="55" value="" style="pointerEvents=1;verticalLabelPosition=bottom;shadow=0;dashed=0;align=center;html=1;verticalAlign=top;shape=mxgraph.electrical.electro-mechanical.break_contact;direction=north;" vertex="1" parent="1"><mxGeometry x="720" y="205" width="12.5" height="75" as="geometry"/></mxCell><mxCell id="56" value="41" style="text;html=1;strokeColor=none;fillColor=none;align=center;verticalAlign=middle;whiteSpace=wrap;rounded=0;" vertex="1" parent="1"><mxGeometry x="732.5" y="130" width="20" height="20" as="geometry"/></mxCell><mxCell id="57" value="42" style="text;html=1;strokeColor=none;fillColor=none;align=center;verticalAlign=middle;whiteSpace=wrap;rounded=0;" vertex="1" parent="1"><mxGeometry x="732.5" y="260" width="20" height="20" as="geometry"/></mxCell><mxCell id="59" value="&lt;div&gt;Rumba32&lt;/div&gt;&lt;div&gt;Driver Breakout Board Enable&lt;br&gt;&lt;/div&gt;" style="text;html=1;strokeColor=none;fillColor=none;align=center;verticalAlign=middle;whiteSpace=wrap;rounded=0;" vertex="1" parent="1"><mxGeometry x="690" y="380" width="80" height="30" as="geometry"/></mxCell><mxCell id="69" style="edgeStyle=orthogonalEdgeStyle;rounded=0;orthogonalLoop=1;jettySize=auto;html=1;exitX=0.5;exitY=1;exitDx=0;exitDy=0;entryX=0;entryY=0;entryDx=0;entryDy=0;endArrow=none;endFill=0;" edge="1" parent="1" source="68" target="56"><mxGeometry relative="1" as="geometry"><Array as="points"><mxPoint x="715" y="55"/><mxPoint x="715" y="92"/><mxPoint x="733" y="92"/></Array></mxGeometry></mxCell><mxCell id="68" value="" style="ellipse;whiteSpace=wrap;html=1;aspect=fixed;" vertex="1" parent="1"><mxGeometry x="710" y="45" width="10" height="10" as="geometry"/></mxCell><mxCell id="71" value="&lt;font style=&quot;font-size: 12px;&quot; face=&quot;Helvetica&quot;&gt;-X1:16&lt;/font&gt;" style="text;html=1;strokeColor=none;fillColor=none;align=center;verticalAlign=middle;whiteSpace=wrap;rounded=0;" vertex="1" parent="1"><mxGeometry x="711.25" y="35" width="62.5" height="30" as="geometry"/></mxCell><mxCell id="72" value="+5 V" style="text;html=1;strokeColor=none;fillColor=none;align=center;verticalAlign=middle;whiteSpace=wrap;rounded=0;" vertex="1" parent="1"><mxGeometry x="665.75" y="35" width="60" height="30" as="geometry"/></mxCell><mxCell id="73" value="" style="rounded=0;whiteSpace=wrap;html=1;fillColor=none;dashed=1;" vertex="1" parent="1"><mxGeometry x="777.5" y="150" width="95" height="40" as="geometry"/></mxCell><mxCell id="74" value="DC+" style="text;html=1;strokeColor=none;fillColor=none;align=center;verticalAlign=middle;whiteSpace=wrap;rounded=0;" vertex="1" parent="1"><mxGeometry x="782.5" y="150" width="25" height="30" as="geometry"/></mxCell><mxCell id="75" value="CH+" style="text;html=1;strokeColor=none;fillColor=none;align=center;verticalAlign=middle;whiteSpace=wrap;rounded=0;" vertex="1" parent="1"><mxGeometry x="812.5" y="150" width="25" height="30" as="geometry"/></mxCell><mxCell id="76" value="CH+" style="text;html=1;strokeColor=none;fillColor=none;align=center;verticalAlign=middle;whiteSpace=wrap;rounded=0;" vertex="1" parent="1"><mxGeometry x="842.5" y="150" width="25" height="30" as="geometry"/></mxCell><mxCell id="77" value="" style="endArrow=none;html=1;rounded=0;exitX=0.25;exitY=0;exitDx=0;exitDy=0;" edge="1" parent="1"><mxGeometry width="50" height="50" relative="1" as="geometry"><mxPoint x="795.13" y="150" as="sourcePoint"/><mxPoint x="795.5" y="125" as="targetPoint"/></mxGeometry></mxCell><mxCell id="78" value="" style="endArrow=none;html=1;rounded=0;exitX=0.25;exitY=0;exitDx=0;exitDy=0;" edge="1" parent="1"><mxGeometry width="50" height="50" relative="1" as="geometry"><mxPoint x="825.12" y="150" as="sourcePoint"/><mxPoint x="825.5" y="125" as="targetPoint"/></mxGeometry></mxCell><mxCell id="79" value="" style="endArrow=none;html=1;rounded=0;exitX=0.25;exitY=0;exitDx=0;exitDy=0;entryX=0.5;entryY=1;entryDx=0;entryDy=0;" edge="1" parent="1" target="82"><mxGeometry width="50" height="50" relative="1" as="geometry"><mxPoint x="855.12" y="150" as="sourcePoint"/><mxPoint x="854.87" y="130" as="targetPoint"/></mxGeometry></mxCell><mxCell id="82" value="" style="ellipse;whiteSpace=wrap;html=1;aspect=fixed;" vertex="1" parent="1"><mxGeometry x="850" y="45" width="10" height="10" as="geometry"/></mxCell><mxCell id="83" value="S11" style="text;html=1;strokeColor=none;fillColor=none;align=center;verticalAlign=middle;whiteSpace=wrap;rounded=0;" vertex="1" parent="1"><mxGeometry x="752.5" y="122.5" width="60" height="30" as="geometry"/></mxCell><mxCell id="84" value="S12" style="text;html=1;strokeColor=none;fillColor=none;align=center;verticalAlign=middle;whiteSpace=wrap;rounded=0;" vertex="1" parent="1"><mxGeometry x="782.5" y="122.5" width="60" height="30" as="geometry"/></mxCell><mxCell id="85" value="S13" style="text;html=1;strokeColor=none;fillColor=none;align=center;verticalAlign=middle;whiteSpace=wrap;rounded=0;" vertex="1" parent="1"><mxGeometry x="812.5" y="122.5" width="60" height="30" as="geometry"/></mxCell><mxCell id="86" value="-X1:36" style="text;html=1;strokeColor=none;fillColor=none;align=center;verticalAlign=middle;whiteSpace=wrap;rounded=0;" vertex="1" parent="1"><mxGeometry x="800" y="35" width="60" height="30" as="geometry"/></mxCell><mxCell id="89" value="" style="endArrow=none;html=1;rounded=0;" edge="1" parent="1"><mxGeometry width="50" height="50" relative="1" as="geometry"><mxPoint x="825.5" y="125" as="sourcePoint"/><mxPoint x="855.5" y="125" as="targetPoint"/></mxGeometry></mxCell><mxCell id="104" value="" style="rounded=0;whiteSpace=wrap;html=1;fillColor=none;dashed=1;" vertex="1" parent="1"><mxGeometry x="890" y="150" width="95" height="40" as="geometry"/></mxCell><mxCell id="105" value="DC+" style="text;html=1;strokeColor=none;fillColor=none;align=center;verticalAlign=middle;whiteSpace=wrap;rounded=0;" vertex="1" parent="1"><mxGeometry x="895" y="150" width="25" height="30" as="geometry"/></mxCell><mxCell id="106" value="CH+" style="text;html=1;strokeColor=none;fillColor=none;align=center;verticalAlign=middle;whiteSpace=wrap;rounded=0;" vertex="1" parent="1"><mxGeometry x="925" y="150" width="25" height="30" as="geometry"/></mxCell><mxCell id="107" value="CH+" style="text;html=1;strokeColor=none;fillColor=none;align=center;verticalAlign=middle;whiteSpace=wrap;rounded=0;" vertex="1" parent="1"><mxGeometry x="955" y="150" width="25" height="30" as="geometry"/></mxCell><mxCell id="108" value="" style="endArrow=none;html=1;rounded=0;exitX=0.25;exitY=0;exitDx=0;exitDy=0;" edge="1" parent="1"><mxGeometry width="50" height="50" relative="1" as="geometry"><mxPoint x="907.63" y="150" as="sourcePoint"/><mxPoint x="908" y="125" as="targetPoint"/></mxGeometry></mxCell><mxCell id="109" value="" style="endArrow=none;html=1;rounded=0;exitX=0.25;exitY=0;exitDx=0;exitDy=0;" edge="1" parent="1"><mxGeometry width="50" height="50" relative="1" as="geometry"><mxPoint x="937.62" y="150" as="sourcePoint"/><mxPoint x="938" y="125" as="targetPoint"/></mxGeometry></mxCell><mxCell id="110" value="" style="endArrow=none;html=1;rounded=0;exitX=0.25;exitY=0;exitDx=0;exitDy=0;entryX=0.5;entryY=1;entryDx=0;entryDy=0;" edge="1" parent="1" target="111"><mxGeometry width="50" height="50" relative="1" as="geometry"><mxPoint x="967.62" y="150" as="sourcePoint"/><mxPoint x="967.37" y="130" as="targetPoint"/></mxGeometry></mxCell><mxCell id="111" value="" style="ellipse;whiteSpace=wrap;html=1;aspect=fixed;" vertex="1" parent="1"><mxGeometry x="962.5" y="45" width="10" height="10" as="geometry"/></mxCell><mxCell id="112" value="S32" style="text;html=1;strokeColor=none;fillColor=none;align=center;verticalAlign=middle;whiteSpace=wrap;rounded=0;" vertex="1" parent="1"><mxGeometry x="895" y="122.5" width="60" height="30" as="geometry"/></mxCell><mxCell id="113" value="S33" style="text;html=1;strokeColor=none;fillColor=none;align=center;verticalAlign=middle;whiteSpace=wrap;rounded=0;" vertex="1" parent="1"><mxGeometry x="925" y="122.5" width="60" height="30" as="geometry"/></mxCell><mxCell id="114" value="-X1:37" style="text;html=1;strokeColor=none;fillColor=none;align=center;verticalAlign=middle;whiteSpace=wrap;rounded=0;" vertex="1" parent="1"><mxGeometry x="912.5" y="35" width="60" height="30" as="geometry"/></mxCell><mxCell id="115" value="" style="endArrow=none;html=1;rounded=0;" edge="1" parent="1"><mxGeometry width="50" height="50" relative="1" as="geometry"><mxPoint x="938" y="125" as="sourcePoint"/><mxPoint x="968" y="125" as="targetPoint"/></mxGeometry></mxCell><mxCell id="116" value="S31" style="text;html=1;strokeColor=none;fillColor=none;align=center;verticalAlign=middle;whiteSpace=wrap;rounded=0;" vertex="1" parent="1"><mxGeometry x="865" y="122.5" width="60" height="30" as="geometry"/></mxCell><mxCell id="117" value="" style="rounded=0;whiteSpace=wrap;html=1;fillColor=none;dashed=1;" vertex="1" parent="1"><mxGeometry x="1005" y="150" width="95" height="40" as="geometry"/></mxCell><mxCell id="118" value="DC+" style="text;html=1;strokeColor=none;fillColor=none;align=center;verticalAlign=middle;whiteSpace=wrap;rounded=0;" vertex="1" parent="1"><mxGeometry x="1010" y="150" width="25" height="30" as="geometry"/></mxCell><mxCell id="119" value="CH+" style="text;html=1;strokeColor=none;fillColor=none;align=center;verticalAlign=middle;whiteSpace=wrap;rounded=0;" vertex="1" parent="1"><mxGeometry x="1040" y="150" width="25" height="30" as="geometry"/></mxCell><mxCell id="120" value="CH+" style="text;html=1;strokeColor=none;fillColor=none;align=center;verticalAlign=middle;whiteSpace=wrap;rounded=0;" vertex="1" parent="1"><mxGeometry x="1070" y="150" width="25" height="30" as="geometry"/></mxCell><mxCell id="121" value="" style="endArrow=none;html=1;rounded=0;exitX=0.25;exitY=0;exitDx=0;exitDy=0;" edge="1" parent="1"><mxGeometry width="50" height="50" relative="1" as="geometry"><mxPoint x="1022.63" y="150" as="sourcePoint"/><mxPoint x="1023" y="125" as="targetPoint"/></mxGeometry></mxCell><mxCell id="122" value="" style="endArrow=none;html=1;rounded=0;exitX=0.25;exitY=0;exitDx=0;exitDy=0;" edge="1" parent="1"><mxGeometry width="50" height="50" relative="1" as="geometry"><mxPoint x="1052.62" y="150" as="sourcePoint"/><mxPoint x="1053" y="125" as="targetPoint"/></mxGeometry></mxCell><mxCell id="123" value="" style="endArrow=none;html=1;rounded=0;exitX=0.25;exitY=0;exitDx=0;exitDy=0;entryX=0.5;entryY=1;entryDx=0;entryDy=0;" edge="1" parent="1" target="124"><mxGeometry width="50" height="50" relative="1" as="geometry"><mxPoint x="1082.62" y="150" as="sourcePoint"/><mxPoint x="1082.37" y="130" as="targetPoint"/></mxGeometry></mxCell><mxCell id="124" value="" style="ellipse;whiteSpace=wrap;html=1;aspect=fixed;" vertex="1" parent="1"><mxGeometry x="1077.5" y="45" width="10" height="10" as="geometry"/></mxCell><mxCell id="125" value="S52" style="text;html=1;strokeColor=none;fillColor=none;align=center;verticalAlign=middle;whiteSpace=wrap;rounded=0;" vertex="1" parent="1"><mxGeometry x="1010" y="122.5" width="60" height="30" as="geometry"/></mxCell><mxCell id="126" value="S53" style="text;html=1;strokeColor=none;fillColor=none;align=center;verticalAlign=middle;whiteSpace=wrap;rounded=0;" vertex="1" parent="1"><mxGeometry x="1040" y="122.5" width="60" height="30" as="geometry"/></mxCell><mxCell id="127" value="-X1:38" style="text;html=1;strokeColor=none;fillColor=none;align=center;verticalAlign=middle;whiteSpace=wrap;rounded=0;" vertex="1" parent="1"><mxGeometry x="1027.5" y="35" width="60" height="30" as="geometry"/></mxCell><mxCell id="128" value="" style="endArrow=none;html=1;rounded=0;" edge="1" parent="1"><mxGeometry width="50" height="50" relative="1" as="geometry"><mxPoint x="1053" y="125" as="sourcePoint"/><mxPoint x="1083" y="125" as="targetPoint"/></mxGeometry></mxCell><mxCell id="129" value="S51" style="text;html=1;strokeColor=none;fillColor=none;align=center;verticalAlign=middle;whiteSpace=wrap;rounded=0;" vertex="1" parent="1"><mxGeometry x="980" y="122.5" width="60" height="30" as="geometry"/></mxCell><mxCell id="131" value="" style="rounded=0;whiteSpace=wrap;html=1;fillColor=none;dashed=1;" vertex="1" parent="1"><mxGeometry x="777.5" y="200" width="95" height="35" as="geometry"/></mxCell><mxCell id="132" value="DC+" style="text;html=1;strokeColor=none;fillColor=none;align=center;verticalAlign=middle;whiteSpace=wrap;rounded=0;" vertex="1" parent="1"><mxGeometry x="782.5" y="205" width="25" height="30" as="geometry"/></mxCell><mxCell id="133" value="CH+" style="text;html=1;strokeColor=none;fillColor=none;align=center;verticalAlign=middle;whiteSpace=wrap;rounded=0;" vertex="1" parent="1"><mxGeometry x="812.5" y="205" width="25" height="30" as="geometry"/></mxCell><mxCell id="134" value="CH+" style="text;html=1;strokeColor=none;fillColor=none;align=center;verticalAlign=middle;whiteSpace=wrap;rounded=0;" vertex="1" parent="1"><mxGeometry x="842.5" y="205" width="25" height="30" as="geometry"/></mxCell><mxCell id="135" value="" style="endArrow=none;html=1;rounded=0;exitX=0.25;exitY=0;exitDx=0;exitDy=0;" edge="1" parent="1"><mxGeometry width="50" height="50" relative="1" as="geometry"><mxPoint x="794.8100000000002" y="260" as="sourcePoint"/><mxPoint x="795.1800000000001" y="235" as="targetPoint"/></mxGeometry></mxCell><mxCell id="136" value="" style="endArrow=none;html=1;rounded=0;exitX=0.25;exitY=0;exitDx=0;exitDy=0;" edge="1" parent="1"><mxGeometry width="50" height="50" relative="1" as="geometry"><mxPoint x="825.1199999999999" y="260" as="sourcePoint"/><mxPoint x="825.5" y="235" as="targetPoint"/></mxGeometry></mxCell><mxCell id="137" value="" style="endArrow=none;html=1;rounded=0;exitX=0.25;exitY=0;exitDx=0;exitDy=0;entryX=0.5;entryY=1;entryDx=0;entryDy=0;" edge="1" parent="1"><mxGeometry width="50" height="50" relative="1" as="geometry"><mxPoint x="855.02" y="330" as="sourcePoint"/><mxPoint x="854.9000000000001" y="235" as="targetPoint"/></mxGeometry></mxCell><mxCell id="138" value="" style="ellipse;whiteSpace=wrap;html=1;aspect=fixed;" vertex="1" parent="1"><mxGeometry x="850" y="330" width="10" height="10" as="geometry"/></mxCell><mxCell id="144" value="" style="endArrow=none;html=1;rounded=0;" edge="1" parent="1"><mxGeometry width="50" height="50" relative="1" as="geometry"><mxPoint x="824.5" y="259.39" as="sourcePoint"/><mxPoint x="854.5" y="259.39" as="targetPoint"/></mxGeometry></mxCell><mxCell id="147" value="-X1:39" style="text;html=1;strokeColor=none;fillColor=none;align=center;verticalAlign=middle;whiteSpace=wrap;rounded=0;" vertex="1" parent="1"><mxGeometry x="820" y="335" width="60" height="30" as="geometry"/></mxCell><mxCell id="148" value="" style="rounded=0;whiteSpace=wrap;html=1;fillColor=none;dashed=1;" vertex="1" parent="1"><mxGeometry x="890" y="200" width="95" height="35" as="geometry"/></mxCell><mxCell id="149" value="DC+" style="text;html=1;strokeColor=none;fillColor=none;align=center;verticalAlign=middle;whiteSpace=wrap;rounded=0;" vertex="1" parent="1"><mxGeometry x="895" y="205" width="25" height="30" as="geometry"/></mxCell><mxCell id="150" value="CH+" style="text;html=1;strokeColor=none;fillColor=none;align=center;verticalAlign=middle;whiteSpace=wrap;rounded=0;" vertex="1" parent="1"><mxGeometry x="925" y="205" width="25" height="30" as="geometry"/></mxCell><mxCell id="151" value="CH+" style="text;html=1;strokeColor=none;fillColor=none;align=center;verticalAlign=middle;whiteSpace=wrap;rounded=0;" vertex="1" parent="1"><mxGeometry x="955" y="205" width="25" height="30" as="geometry"/></mxCell><mxCell id="152" value="" style="endArrow=none;html=1;rounded=0;exitX=0.25;exitY=0;exitDx=0;exitDy=0;" edge="1" parent="1"><mxGeometry width="50" height="50" relative="1" as="geometry"><mxPoint x="907.3100000000002" y="260" as="sourcePoint"/><mxPoint x="907.6800000000001" y="235" as="targetPoint"/></mxGeometry></mxCell><mxCell id="153" value="" style="endArrow=none;html=1;rounded=0;exitX=0.25;exitY=0;exitDx=0;exitDy=0;" edge="1" parent="1"><mxGeometry width="50" height="50" relative="1" as="geometry"><mxPoint x="937.6199999999999" y="260" as="sourcePoint"/><mxPoint x="938" y="235" as="targetPoint"/></mxGeometry></mxCell><mxCell id="154" value="" style="endArrow=none;html=1;rounded=0;exitX=0.25;exitY=0;exitDx=0;exitDy=0;entryX=0.5;entryY=1;entryDx=0;entryDy=0;" edge="1" parent="1"><mxGeometry width="50" height="50" relative="1" as="geometry"><mxPoint x="967.52" y="330" as="sourcePoint"/><mxPoint x="967.4000000000001" y="235" as="targetPoint"/></mxGeometry></mxCell><mxCell id="155" value="" style="ellipse;whiteSpace=wrap;html=1;aspect=fixed;" vertex="1" parent="1"><mxGeometry x="962.5" y="330" width="10" height="10" as="geometry"/></mxCell><mxCell id="156" value="" style="endArrow=none;html=1;rounded=0;" edge="1" parent="1"><mxGeometry width="50" height="50" relative="1" as="geometry"><mxPoint x="937" y="259.39" as="sourcePoint"/><mxPoint x="967" y="259.39" as="targetPoint"/></mxGeometry></mxCell><mxCell id="157" value="-X1:40" style="text;html=1;strokeColor=none;fillColor=none;align=center;verticalAlign=middle;whiteSpace=wrap;rounded=0;" vertex="1" parent="1"><mxGeometry x="932.5" y="335" width="60" height="30" as="geometry"/></mxCell><mxCell id="158" value="" style="rounded=0;whiteSpace=wrap;html=1;fillColor=none;dashed=1;" vertex="1" parent="1"><mxGeometry x="1005" y="200" width="95" height="35" as="geometry"/></mxCell><mxCell id="159" value="DC+" style="text;html=1;strokeColor=none;fillColor=none;align=center;verticalAlign=middle;whiteSpace=wrap;rounded=0;" vertex="1" parent="1"><mxGeometry x="1010" y="205" width="25" height="30" as="geometry"/></mxCell><mxCell id="160" value="CH+" style="text;html=1;strokeColor=none;fillColor=none;align=center;verticalAlign=middle;whiteSpace=wrap;rounded=0;" vertex="1" parent="1"><mxGeometry x="1040" y="205" width="25" height="30" as="geometry"/></mxCell><mxCell id="161" value="CH+" style="text;html=1;strokeColor=none;fillColor=none;align=center;verticalAlign=middle;whiteSpace=wrap;rounded=0;" vertex="1" parent="1"><mxGeometry x="1070" y="205" width="25" height="30" as="geometry"/></mxCell><mxCell id="162" value="" style="endArrow=none;html=1;rounded=0;exitX=0.25;exitY=0;exitDx=0;exitDy=0;" edge="1" parent="1"><mxGeometry width="50" height="50" relative="1" as="geometry"><mxPoint x="1022.3100000000002" y="260" as="sourcePoint"/><mxPoint x="1022.6800000000001" y="235" as="targetPoint"/></mxGeometry></mxCell><mxCell id="163" value="" style="endArrow=none;html=1;rounded=0;exitX=0.25;exitY=0;exitDx=0;exitDy=0;" edge="1" parent="1"><mxGeometry width="50" height="50" relative="1" as="geometry"><mxPoint x="1052.62" y="260" as="sourcePoint"/><mxPoint x="1053" y="235" as="targetPoint"/></mxGeometry></mxCell><mxCell id="164" value="" style="endArrow=none;html=1;rounded=0;exitX=0.25;exitY=0;exitDx=0;exitDy=0;entryX=0.5;entryY=1;entryDx=0;entryDy=0;" edge="1" parent="1"><mxGeometry width="50" height="50" relative="1" as="geometry"><mxPoint x="1082.52" y="330" as="sourcePoint"/><mxPoint x="1082.4" y="235" as="targetPoint"/></mxGeometry></mxCell><mxCell id="165" value="" style="ellipse;whiteSpace=wrap;html=1;aspect=fixed;" vertex="1" parent="1"><mxGeometry x="1077.5" y="330" width="10" height="10" as="geometry"/></mxCell><mxCell id="166" value="" style="endArrow=none;html=1;rounded=0;" edge="1" parent="1"><mxGeometry width="50" height="50" relative="1" as="geometry"><mxPoint x="1052" y="259.39" as="sourcePoint"/><mxPoint x="1082" y="259.39" as="targetPoint"/></mxGeometry></mxCell><mxCell id="167" value="-X1:41" style="text;html=1;strokeColor=none;fillColor=none;align=center;verticalAlign=middle;whiteSpace=wrap;rounded=0;" vertex="1" parent="1"><mxGeometry x="1047.5" y="335" width="60" height="30" as="geometry"/></mxCell><mxCell id="168" value="S21" style="text;html=1;strokeColor=none;fillColor=none;align=center;verticalAlign=middle;whiteSpace=wrap;rounded=0;" vertex="1" parent="1"><mxGeometry x="752.5" y="255" width="60" height="30" as="geometry"/></mxCell><mxCell id="169" value="S22" style="text;html=1;strokeColor=none;fillColor=none;align=center;verticalAlign=middle;whiteSpace=wrap;rounded=0;" vertex="1" parent="1"><mxGeometry x="782.5" y="255" width="60" height="30" as="geometry"/></mxCell><mxCell id="170" value="S23" style="text;html=1;strokeColor=none;fillColor=none;align=center;verticalAlign=middle;whiteSpace=wrap;rounded=0;" vertex="1" parent="1"><mxGeometry x="812.5" y="255" width="60" height="30" as="geometry"/></mxCell><mxCell id="171" value="S41" style="text;html=1;strokeColor=none;fillColor=none;align=center;verticalAlign=middle;whiteSpace=wrap;rounded=0;" vertex="1" parent="1"><mxGeometry x="865" y="255" width="60" height="30" as="geometry"/></mxCell><mxCell id="172" value="S42" style="text;html=1;strokeColor=none;fillColor=none;align=center;verticalAlign=middle;whiteSpace=wrap;rounded=0;" vertex="1" parent="1"><mxGeometry x="895" y="255" width="60" height="30" as="geometry"/></mxCell><mxCell id="173" value="S43" style="text;html=1;strokeColor=none;fillColor=none;align=center;verticalAlign=middle;whiteSpace=wrap;rounded=0;" vertex="1" parent="1"><mxGeometry x="925" y="255" width="60" height="30" as="geometry"/></mxCell><mxCell id="174" value="S61" style="text;html=1;strokeColor=none;fillColor=none;align=center;verticalAlign=middle;whiteSpace=wrap;rounded=0;" vertex="1" parent="1"><mxGeometry x="980" y="255" width="60" height="30" as="geometry"/></mxCell><mxCell id="175" value="&lt;div&gt;S62&lt;/div&gt;" style="text;html=1;strokeColor=none;fillColor=none;align=center;verticalAlign=middle;whiteSpace=wrap;rounded=0;" vertex="1" parent="1"><mxGeometry x="1010" y="255" width="60" height="30" as="geometry"/></mxCell><mxCell id="176" value="S63" style="text;html=1;strokeColor=none;fillColor=none;align=center;verticalAlign=middle;whiteSpace=wrap;rounded=0;" vertex="1" parent="1"><mxGeometry x="1040" y="255" width="60" height="30" as="geometry"/></mxCell><mxCell id="177" value="" style="rounded=0;whiteSpace=wrap;html=1;fillColor=none;dashed=1;" vertex="1" parent="1"><mxGeometry x="505" y="130" width="610" height="150" as="geometry"/></mxCell></root></mxGraphModel></diagram></mxfile>